<svg width="51" height="59" viewBox="0 0 51 59" fill="none" xmlns="http://www.w3.org/2000/svg">
<path fill-rule="evenodd" clip-rule="evenodd" d="M6.4076 0C3.03998 0 0.265475 2.76795 0.244497 6.13635C0.188972 15.2781 0.0577866 36.9527 0.000110789 46.1431C-0.00967163 47.7837 0.628691 49.3659 1.78718 50.5306C2.94445 51.6975 4.52303 52.3482 6.16321 52.3482H26.241C26.417 52.9359 26.6631 53.7617 26.8138 54.2651C27.5945 56.8656 30.0187 58.6526 32.7326 58.6526H44.337C45.9719 58.6526 47.5382 58.006 48.694 56.8502C49.8498 55.6944 50.4963 54.1281 50.4963 52.4933V37.7576C50.4963 34.6012 49.4766 31.5345 47.5828 29.0094L37.8685 16.0493V6.17835C37.8685 2.79621 35.0878 0 31.7054 0H6.4076ZM6.4076 3.91395H31.7054C32.9767 3.91395 33.9583 4.90726 33.9583 6.17835V18.8062V35.5619C33.5877 34.9409 33.0692 34.3408 32.8051 33.9887C31.5903 32.3523 29.3561 31.9484 27.4057 32.2933C26.898 32.3632 26.5647 32.4906 26.241 32.6217C24.713 33.2204 23.5466 34.3931 22.896 35.8063H3.97519C4.03893 25.4483 4.11362 12.9374 4.15467 6.16307C4.16249 4.89934 5.14547 3.91395 6.4076 3.91395ZM19.0355 6.32346C18.7182 6.32638 18.4064 6.4065 18.127 6.55685C17.8476 6.70721 17.6089 6.92328 17.4317 7.18646L13.8117 12.6431H8.54216C8.18921 12.6435 7.84292 12.7393 7.54003 12.9205C7.23715 13.1017 6.98895 13.3614 6.82178 13.6723C6.65461 13.9831 6.5747 14.3335 6.59052 14.6861C6.60635 15.0387 6.71732 15.3804 6.91166 15.675L10.7951 21.506V29.3263C10.794 29.6811 10.8895 30.0294 11.0712 30.3341C11.253 30.6388 11.5143 30.8882 11.827 31.0558C12.1397 31.2233 12.4921 31.3026 12.8464 31.2852C13.2008 31.2678 13.5437 31.1542 13.8385 30.9568L19.0622 27.4667L24.3012 30.9568C24.5959 31.1512 24.9376 31.2621 25.2902 31.2779C25.6428 31.2937 25.9931 31.2139 26.304 31.0467C26.6148 30.8795 26.8746 30.6313 27.0558 30.3284C27.237 30.0255 27.3328 29.6793 27.3331 29.3263V21.506L31.2166 15.675C31.4102 15.3815 31.5211 15.0412 31.5376 14.6899C31.5541 14.3386 31.4755 13.9894 31.3101 13.679C31.1448 13.3686 30.8988 13.1086 30.5981 12.9263C30.2973 12.744 29.953 12.6462 29.6013 12.6431H24.3165L20.6965 7.18646C20.5139 6.91518 20.2662 6.69407 19.976 6.5433C19.6858 6.39253 19.3624 6.31693 19.0355 6.32346ZM19.0623 11.8069L21.6474 15.675C21.8255 15.9448 22.0676 16.1662 22.3521 16.3195C22.6366 16.4728 22.9547 16.5531 23.2779 16.5533H25.9356L23.7552 19.8296C23.5398 20.1503 23.4242 20.5277 23.423 20.9141V25.6758L20.1467 23.4954C19.826 23.2821 19.4494 23.1684 19.0642 23.1684C18.679 23.1684 18.3024 23.2821 17.9816 23.4954L14.7053 25.6758V20.9141C14.7042 20.5277 14.5886 20.1503 14.3731 19.8296L12.1927 16.5533H14.8504C15.1736 16.5531 15.4917 16.4728 15.7763 16.3195C16.0608 16.1662 16.3029 15.9448 16.481 15.675L19.0623 11.8069ZM37.8685 22.5713L44.4517 31.3463C45.8382 33.195 46.5863 35.4467 46.5862 37.7576V52.4933C46.5862 53.0904 46.3452 53.6699 45.9218 54.0933C45.4984 54.5166 44.9342 54.7577 44.3371 54.7577H32.7326C31.7281 54.7577 30.8563 54.1045 30.5675 53.1424C29.4531 49.4201 27.5524 43.0756 26.3251 38.9833C25.9719 37.8048 26.5875 36.6146 27.7532 36.2264H27.7227C27.7326 36.2222 27.7437 36.2159 27.7532 36.2117C28.5507 35.9451 29.4159 36.1754 30.0176 36.7616C30.0442 36.7982 30.069 36.8252 30.1054 36.8759C31.5281 38.9169 32.8447 40.8887 34.2905 43.0543C35.3645 44.6561 37.862 43.8983 37.8685 41.9698L37.8685 22.5713ZM3.94853 39.7051H22.4913C22.5218 39.8402 22.5312 39.9755 22.5715 40.1098C23.2935 42.5173 24.1742 45.4616 25.065 48.4342H6.16325C5.56073 48.4342 4.98075 48.1985 4.55947 47.7736C4.13465 47.3465 3.90647 46.7695 3.91032 46.1699C3.92011 44.6847 3.936 41.7366 3.94853 39.7051ZM16.9583 42.1146C16.4475 42.1263 15.9616 42.3374 15.6045 42.7028C15.2474 43.0681 15.0474 43.5587 15.0474 44.0696C15.0474 44.5805 15.2474 45.0711 15.6045 45.4365C15.9616 45.8019 16.4475 46.013 16.9583 46.0247H19.0623C19.573 46.013 20.0589 45.8019 20.416 45.4365C20.7731 45.0711 20.9731 44.5805 20.9731 44.0696C20.9731 43.5587 20.7731 43.0681 20.416 42.7028C20.0589 42.3374 19.573 42.1263 19.0623 42.1146H16.9583Z" fill="#B1B1B1"/>
</svg>
