<svg width="50" height="59" viewBox="0 0 50 59" fill="none" xmlns="http://www.w3.org/2000/svg">
<path fill-rule="evenodd" clip-rule="evenodd" d="M6.16304 0C4.52683 0 2.9665 0.650475 1.81064 1.80675C0.64995 2.96432 0 4.54422 0 6.17835V38.919C0 42.3033 2.77843 45.082 6.16304 45.082H21.1725C22.0998 48.1704 23.0585 51.3277 23.9325 54.2696C24.7138 56.8717 27.1197 58.6526 29.8352 58.6526H43.1145C44.7504 58.6526 46.3295 58.0023 47.486 56.8458C48.6426 55.6893 49.2928 54.1255 49.2928 52.4895V39.2103C49.2928 35.0973 47.8008 31.2633 45.2735 27.9102L37.2424 16.1085V6.17867C37.2424 2.79439 34.4486 0.000383558 31.064 0.000383558L6.16304 0ZM6.16304 3.91983H23.5114V32.5607C20.4596 33.6559 18.7408 36.9861 19.6758 40.1057C19.7675 40.4113 19.8948 40.8336 19.9935 41.1622H6.16304C4.89475 41.1622 3.92369 40.187 3.92369 38.919V6.17835C3.92369 5.58103 4.15206 5.00711 4.57444 4.58588C4.99682 4.16335 5.56663 3.91979 6.16304 3.91983ZM27.4313 3.91983H31.064C32.3323 3.91983 33.3225 4.91032 33.3225 6.17835C33.3223 16.5573 33.3225 26.9291 33.3225 37.3113L29.908 33.9695C29.2027 33.2801 28.3473 32.7906 27.4313 32.4995V3.91983ZM9.76516 7.81288C8.68421 7.83383 7.82443 8.72622 7.84353 9.80725V11.7633C7.78278 14.4367 11.8242 14.4367 11.7634 11.7633V9.80725C11.783 8.69622 10.8761 7.79111 9.76516 7.81288ZM9.76516 17.6201C8.68875 17.6411 7.83081 18.5265 7.84353 19.603V35.2863C7.78278 37.9596 11.8242 37.9596 11.7634 35.2863V19.603C11.7771 18.4965 10.8715 17.5986 9.76516 17.6201ZM37.2424 23.075L42.1307 30.2525C44.1228 32.9797 45.3353 36.3362 45.373 39.2061V52.4892C45.373 53.0847 45.1292 53.6593 44.7069 54.0816C44.2846 54.5039 43.71 54.7323 43.1145 54.7323H29.8352C28.8332 54.7323 27.9682 54.0997 27.6801 53.1399C26.5659 49.4182 24.6657 43.0679 23.4387 38.9764C23.0298 37.5019 24.1041 36.6795 24.8282 36.2279C25.7173 35.7867 26.6784 36.2941 27.1595 36.7749L33.3225 42.781V45.0816C33.3225 47.6956 37.2424 47.6956 37.2424 45.0816C37.2426 37.7497 37.2424 30.4119 37.2424 23.075Z" fill="#B1B1B1"/>
</svg>
