<svg width="38" height="54" viewBox="0 0 38 54" fill="none" xmlns="http://www.w3.org/2000/svg">
<path d="M32.5322 26.3167C32.2016 26.0522 31.8049 25.8318 31.4522 25.5893C31.2098 25.3028 30.9012 25.1044 30.5265 24.9722C28.1682 23.6277 25.5012 22.8342 22.8563 22.8342C22.3053 22.8342 21.7984 23.0546 21.4016 23.4293L18.7127 26.1404L16.0016 23.4514C15.6269 23.0546 15.098 22.8563 14.5469 22.8563C11.88 22.8563 9.16898 23.6718 6.81061 25.0383C6.48 25.1485 6.21551 25.3469 5.9951 25.5893C5.62041 25.8318 5.22367 26.0522 4.87102 26.3167C2.11592 28.4767 0 31.6285 0 35.3093V41.5469C0 48.4236 5.59837 53.9999 12.4751 53.9999H24.9502C31.8269 53.9999 37.4253 48.4236 37.4253 41.5469V35.3093C37.4033 31.6285 35.2873 28.4767 32.5322 26.3167ZM23.5175 27.2204C24.6196 27.3085 25.7877 27.5289 26.9118 27.9477L24.5314 31.9371L21.6661 29.0718L23.5175 27.2204ZM15.7812 29.0718L12.9159 31.9371L10.5355 27.9477C11.6596 27.551 12.8278 27.3085 13.9298 27.2204L15.7812 29.0718ZM33.2596 41.5469C33.2596 46.1755 29.5788 49.8342 24.9502 49.8342H12.4751C7.82449 49.8342 4.16571 46.1755 4.16571 41.5469V35.3093C4.16571 33.4138 5.24571 31.5844 6.9649 30.0636L10.7118 36.3673C11.3951 37.5355 13.0041 37.7338 13.9739 36.7861L18.7127 32.0032L23.4735 36.764C24.4433 37.7118 26.0302 37.5134 26.7355 36.3452L30.4824 30.0416C32.2016 31.5624 33.2816 33.3918 33.2816 35.2873V41.5469H33.2596Z" fill="#B1B1B1"/>
<path d="M18.7127 18.6906C23.8482 18.6906 28.08 14.4808 28.08 9.34531C28.08 4.2098 23.8702 0 18.7127 0C13.5772 0 9.36737 4.2098 9.36737 9.34531C9.36737 14.4808 13.5551 18.6906 18.7127 18.6906ZM18.7127 4.14367C21.6 4.14367 23.9143 6.45796 23.9143 9.34531C23.9143 12.2327 21.6 14.5469 18.7127 14.5469C15.8253 14.5469 13.5331 12.2327 13.5331 9.34531C13.5331 6.45796 15.8033 4.14367 18.7127 4.14367Z" fill="#B1B1B1"/>
<path d="M27.0221 39.4529H24.9503C22.1731 39.4529 22.1731 43.6186 24.9503 43.6186H27.0221C29.7772 43.6186 29.7772 39.4529 27.0221 39.4529Z" fill="#B1B1B1"/>
</svg>
